<svg width="48" height="76" viewBox="0 0 48 76" fill="none" xmlns="http://www.w3.org/2000/svg">
<path d="M44.4742 60.6391C42.1303 65.1458 38.5641 68.9307 34.1683 71.5771C29.7724 74.2235 24.7173 75.6288 19.5595 75.6384C17.3456 75.6475 15.1388 75.391 12.9883 74.8747L17.2783 65.5727C21.0654 66.0647 24.9136 65.351 28.2562 63.5367C31.5988 61.7225 34.2593 58.9035 35.8461 55.4948C37.4328 52.0861 37.8619 48.2677 37.0703 44.6018C36.2786 40.9359 34.308 37.6162 31.4485 35.1313L35.7385 25.8599C41.1991 29.6704 45.0841 35.2766 46.6873 41.6591C48.2904 48.0416 47.5051 54.7765 44.4742 60.6391Z" fill="url(#paint0_linear_295_751)"/>
<path d="M37.7241 2.18497L33.4964 11.2731C30.3779 10.3728 27.0678 10.3251 23.9237 11.1353C20.7795 11.9455 17.9207 13.5827 15.6559 15.8703C13.3912 18.1578 11.8064 21.0087 11.0729 24.1152C10.3393 27.2217 10.4848 30.4657 11.4936 33.497C12.7565 37.3549 15.3606 40.6553 18.8512 42.8219L14.6235 51.9253C8.37612 48.4356 3.73926 42.7194 1.67607 35.9641C-0.387126 29.2087 0.281934 21.9333 3.54427 15.6491C6.61018 9.7227 11.7663 5.09032 18.0535 2.61365C24.3407 0.136984 31.331 -0.0153556 37.7241 2.18497Z" fill="url(#paint1_linear_295_751)"/>
<path d="M31.7294 54.308C30.5943 56.4961 28.8137 58.2981 26.6194 59.4792C24.4251 60.6603 21.919 61.1656 19.4277 60.9293L29.2068 39.8892C31.1569 41.7039 32.4563 44.0886 32.911 46.6873C33.3657 49.2861 32.9511 51.9593 31.7294 54.308Z" fill="url(#paint2_linear_295_751)"/>
<path d="M31.1375 16.3977L21.2728 37.6287C18.7079 36.1676 16.7886 33.823 15.888 31.0509C14.9874 28.2788 15.1698 25.2773 16.3999 22.6298C17.63 19.9823 19.8198 17.8782 22.5436 16.7263C25.2674 15.5745 28.3306 15.4574 31.1375 16.3977Z" fill="url(#paint3_linear_295_751)"/>
<defs>
<linearGradient id="paint0_linear_295_751" x1="39.2842" y1="117.228" x2="39.2842" y2="33.6584" gradientUnits="userSpaceOnUse">
<stop offset="0.571012" stop-color="#3331EC"/>
<stop offset="0.869109" stop-color="#8667F9"/>
</linearGradient>
<linearGradient id="paint1_linear_295_751" x1="28.8628" y1="94.7747" x2="28.8628" y2="8.67347" gradientUnits="userSpaceOnUse">
<stop offset="0.571012" stop-color="#3331EC"/>
<stop offset="0.869109" stop-color="#8667F9"/>
</linearGradient>
<linearGradient id="paint2_linear_295_751" x1="29.838" y1="78.6123" x2="29.838" y2="43.1943" gradientUnits="userSpaceOnUse">
<stop offset="0.571012" stop-color="#3331EC"/>
<stop offset="0.869109" stop-color="#8667F9"/>
</linearGradient>
<linearGradient id="paint3_linear_295_751" x1="27.373" y1="55.8927" x2="27.373" y2="19.1933" gradientUnits="userSpaceOnUse">
<stop offset="0.571012" stop-color="#3331EC"/>
<stop offset="0.869109" stop-color="#8667F9"/>
</linearGradient>
</defs>
</svg>
